<?xml version="1.0" encoding="UTF-8" standalone="no"?>
<svg
   version="1.0"
   width="1279.6608pt"
   height="1150.8365pt"
   viewBox="0 0 1279.6608 1150.8365"
   preserveAspectRatio="xMidYMid"
   id="svg14"
   sodipodi:docname="heart-puzzle.svg"
   inkscape:version="1.3.2 (091e20e, 2023-11-25)"
   xmlns:inkscape="http://www.inkscape.org/namespaces/inkscape"
   xmlns:sodipodi="http://sodipodi.sourceforge.net/DTD/sodipodi-0.dtd"
   xmlns="http://www.w3.org/2000/svg"
   xmlns:svg="http://www.w3.org/2000/svg">
  <defs
     id="defs14" />
  <sodipodi:namedview
     id="namedview14"
     pagecolor="#505050"
     bordercolor="#eeeeee"
     borderopacity="1"
     inkscape:showpageshadow="0"
     inkscape:pageopacity="0"
     inkscape:pagecheckerboard="0"
     inkscape:deskcolor="#505050"
     inkscape:document-units="pt"
     inkscape:zoom="0.27660892"
     inkscape:cx="578.43398"
     inkscape:cy="524.20579"
     inkscape:window-width="1920"
     inkscape:window-height="1027"
     inkscape:window-x="0"
     inkscape:window-y="25"
     inkscape:window-maximized="1"
     inkscape:current-layer="g14" />
  <metadata
     id="metadata1">
Created by potrace 1.15, written by Peter Selinger 2001-2017
</metadata>
  <g
     transform="matrix(0.1,0,0,-0.1,-0.21769087,1151.1)"
     fill="#e91e63"
     stroke="none"
     id="g14">
    <path
       d="m 2950,11495 c -140,-9 -237,-22 -345,-44 -393,-83 -540,-132 -825,-277 -280,-141 -499,-301 -731,-533 C 875,10466 799,10374 671,10185 562,10023 522,9954 427,9765 316,9542 249,9364 171,9084 132,8945 97,8825 94,8816 c -8,-22 40,-21 331,4 683,60 980,29 1138,-119 79,-74 92,-107 91,-231 -1,-99 -4,-114 -54,-265 -45,-134 -53,-172 -54,-235 0,-55 4,-84 18,-110 37,-70 86,-119 151,-151 57,-28 72,-31 132,-27 78,4 142,31 192,80 85,83 98,191 41,338 -93,240 -93,242 -94,325 -1,69 3,88 27,138 61,124 190,210 370,248 137,29 377,35 637,15 118,-9 256,-19 305,-22 l 90,-7 32,179 c 60,331 65,466 20,556 -27,53 -73,78 -143,78 -63,0 -131,-20 -261,-76 -138,-59 -217,-77 -323,-71 -114,6 -184,34 -259,102 -136,126 -182,347 -104,500 31,61 109,143 173,182 121,74 257,84 450,34 213,-54 325,-52 392,8 53,47 50,103 -26,551 -116,679 -112,664 -181,666 -22,1 -128,-4 -235,-11 z"
       id="path1" />
    <path
       d="m 3360,11505 c 0,-2 11,-38 24,-79 37,-111 62,-238 96,-481 17,-121 40,-278 51,-350 49,-300 1,-425 -181,-471 -80,-20 -160,-15 -361,22 -257,47 -374,24 -459,-91 -53,-73 -63,-105 -58,-185 9,-126 71,-215 186,-268 47,-21 64,-24 136,-20 69,4 101,13 221,61 168,67 240,87 315,87 179,0 264,-92 292,-315 16,-137 -6,-352 -58,-560 -10,-38 -13,-70 -8,-74 5,-4 119,-23 254,-42 313,-43 532,-48 646,-12 87,28 145,68 179,127 50,86 44,139 -30,261 -51,83 -66,134 -66,220 0,116 30,191 115,283 94,101 228,155 326,132 101,-24 201,-108 284,-238 100,-157 110,-227 58,-406 -18,-60 -32,-126 -32,-146 0,-74 66,-115 205,-126 59,-5 690,43 801,61 l 31,5 5,268 6,267 -34,105 c -62,194 -198,446 -378,700 -535,758 -1297,1186 -2240,1260 -133,10 -326,14 -326,5 z"
       id="path2" />
    <path
       d="m 9345,11503 c -733,-34 -1348,-235 -1826,-595 -470,-353 -917,-987 -1046,-1481 -24,-94 -27,-119 -27,-307 l -1,-205 275,4 c 284,3 527,-9 659,-34 283,-54 438,-187 417,-360 -3,-28 -24,-102 -47,-165 -36,-97 -42,-127 -43,-195 -1,-70 3,-88 29,-139 53,-104 137,-153 248,-144 108,9 253,103 296,191 28,58 27,126 -5,227 -35,110 -30,183 17,278 39,77 87,119 176,152 183,69 402,68 926,-1 92,-12 171,-19 175,-15 12,13 7,455 -6,529 -27,143 -78,232 -150,262 -56,24 -150,18 -284,-16 -100,-26 -133,-31 -186,-26 -135,13 -281,116 -344,244 -40,81 -48,178 -23,272 48,187 172,319 327,351 72,14 119,7 278,-40 214,-65 283,-62 329,14 37,61 55,237 71,706 6,162 13,341 16,398 l 6,102 -99,-2 c -54,-1 -125,-3 -158,-5 z"
       id="path3" />
    <path
       d="m 9720,11420 c 0,-50 -5,-155 -10,-233 -6,-78 -15,-277 -20,-442 -10,-320 -18,-384 -66,-479 -72,-144 -181,-173 -419,-112 -143,36 -278,45 -339,22 -60,-23 -117,-80 -152,-152 -38,-77 -40,-185 -6,-251 34,-66 78,-110 140,-140 72,-35 162,-36 304,-5 334,75 492,-51 538,-428 5,-46 10,-180 10,-297 v -212 l 33,-5 c 123,-20 377,-60 452,-71 356,-54 566,-34 666,66 54,54 58,89 24,209 -22,77 -27,111 -23,157 10,110 83,254 176,348 69,70 128,98 214,103 59,4 75,0 134,-27 121,-57 232,-195 269,-336 24,-92 19,-153 -20,-274 -22,-66 -35,-128 -35,-160 0,-125 99,-210 287,-247 94,-19 332,-21 453,-5 74,10 419,88 429,97 8,7 -43,268 -85,429 -136,534 -362,1001 -675,1396 -107,135 -356,384 -487,488 -296,233 -652,419 -991,515 -178,51 -396,94 -566,111 -82,8 -169,17 -192,21 l -43,5 z"
       id="path4" />
    <path
       d="m 4819,9582 c -52,-34 -91,-82 -126,-158 -40,-88 -31,-158 37,-304 50,-105 55,-121 55,-185 0,-61 -5,-78 -34,-133 -63,-117 -171,-188 -332,-219 -119,-22 -353,-13 -638,26 -124,17 -232,31 -242,31 -13,0 -18,-12 -23,-57 -24,-223 -78,-784 -83,-856 -14,-212 64,-367 184,-367 20,0 80,25 160,66 128,66 128,66 198,62 121,-8 223,-75 305,-200 115,-176 84,-376 -84,-544 -98,-98 -163,-128 -276,-129 -84,0 -86,1 -175,50 -118,67 -139,75 -184,75 -81,0 -151,-83 -188,-223 -23,-84 -22,-343 1,-537 10,-80 23,-193 30,-253 7,-59 16,-110 19,-113 3,-4 131,14 284,39 153,26 334,52 403,58 189,17 347,1 441,-47 161,-81 193,-200 128,-483 -42,-183 -44,-276 -5,-354 31,-64 75,-105 156,-145 138,-68 307,-2 372,146 31,69 21,133 -41,268 -65,142 -76,195 -56,281 47,202 196,344 406,389 109,23 367,14 563,-20 82,-14 153,-26 156,-26 13,0 20,154 21,450 1,231 -3,311 -15,369 -36,169 -112,245 -246,244 -52,0 -87,-8 -175,-42 -75,-29 -132,-44 -180,-48 -128,-10 -255,39 -346,134 -57,59 -82,102 -103,172 -21,73 -20,135 4,212 56,183 209,333 365,357 77,12 105,8 252,-39 144,-46 204,-50 271,-16 117,57 205,191 245,372 21,94 22,122 20,445 -1,190 -4,364 -8,388 l -6,42 h -66 c -35,0 -165,-12 -286,-27 -297,-36 -520,-38 -622,-6 -180,57 -218,145 -155,358 58,195 34,292 -101,420 -95,89 -123,105 -185,105 -38,0 -61,-7 -95,-28 z"
       id="path5" />
    <path
       d="m 11192,9360 c -91,-41 -200,-195 -210,-298 -3,-36 3,-67 23,-123 37,-101 32,-183 -16,-277 -57,-112 -167,-171 -361,-194 -118,-14 -262,-3 -547,42 -107,17 -234,34 -282,38 l -87,8 -7,-94 c -11,-143 1,-534 19,-620 29,-138 82,-224 162,-262 63,-31 124,-24 247,29 117,50 171,61 235,50 171,-32 347,-222 388,-420 37,-177 -64,-372 -233,-452 -61,-29 -77,-32 -158,-31 -77,0 -106,6 -200,38 -183,63 -258,60 -335,-15 -122,-119 -161,-351 -145,-871 7,-236 8,-248 27,-248 10,0 101,17 201,37 155,32 202,37 317,38 133,0 136,-1 202,-33 74,-36 113,-78 153,-163 45,-97 38,-142 -55,-374 -28,-69 -32,-89 -28,-150 3,-60 9,-80 38,-128 47,-79 95,-110 175,-115 35,-2 79,1 99,8 79,26 175,156 192,257 4,25 -2,87 -15,160 -24,133 -19,188 20,265 39,77 69,107 143,143 141,69 343,81 766,45 129,-11 250,-20 268,-20 33,0 34,2 102,143 75,155 247,587 303,762 120,372 188,799 204,1275 6,205 -4,579 -17,599 -5,9 -43,3 -151,-23 -222,-53 -303,-66 -444,-73 -349,-15 -608,83 -691,262 -35,73 -32,144 12,290 44,149 43,212 -5,310 -54,110 -166,205 -241,205 -14,0 -44,-9 -68,-20 z"
       id="path6" />
    <path
       d="m 790,8724 c -36,-2 -191,-15 -345,-29 -154,-14 -299,-25 -323,-25 -51,0 -55,-8 -71,-126 -35,-259 -53,-496 -48,-614 11,-269 47,-603 88,-815 87,-456 149,-664 325,-1087 115,-279 120,-288 149,-292 115,-18 251,-44 450,-86 302,-65 400,-77 507,-62 45,7 92,19 105,28 53,34 54,115 4,278 -61,196 -28,375 94,505 105,113 245,130 405,50 136,-69 227,-192 237,-323 7,-77 -6,-132 -54,-241 -44,-101 -53,-177 -24,-221 27,-43 76,-78 141,-100 88,-30 392,-24 660,13 l 205,28 -3,45 c -2,25 -13,126 -25,225 -29,243 -31,607 -4,704 26,92 69,172 121,223 62,62 108,83 182,83 55,0 74,-7 186,-63 103,-51 133,-62 174,-62 67,0 138,37 202,104 105,110 130,218 79,330 -32,70 -96,138 -155,166 -71,34 -125,25 -270,-44 -179,-85 -235,-87 -321,-10 -85,77 -123,178 -140,372 -15,162 1,365 60,801 10,79 19,156 19,170 v 27 l -207,18 c -618,53 -887,20 -1017,-125 -90,-100 -87,-198 13,-398 49,-97 65,-166 59,-251 -17,-236 -267,-416 -494,-355 -116,31 -226,119 -277,222 -65,128 -62,231 13,451 87,258 70,347 -79,422 -99,50 -379,78 -621,64 z"
       id="path8" />
    <path
       d="m 1894,6351 c -59,-27 -119,-85 -145,-138 -32,-67 -28,-148 15,-322 39,-157 42,-188 24,-258 -16,-66 -86,-136 -155,-156 -160,-47 -294,-34 -876,88 -70,15 -130,25 -133,23 -10,-11 23,-71 207,-379 273,-459 451,-720 718,-1054 362,-452 982,-1112 1371,-1460 85,-76 169,-152 187,-168 l 31,-29 16,29 c 8,17 20,61 27,99 6,38 25,121 41,184 47,185 68,329 68,463 -1,142 -21,342 -39,375 -39,73 -128,70 -291,-9 -107,-51 -117,-54 -189,-54 -92,1 -148,23 -216,86 -106,98 -149,201 -143,344 3,79 7,99 37,160 46,94 137,185 228,227 58,27 80,32 143,32 66,0 87,-5 170,-41 175,-76 232,-79 302,-15 82,74 103,153 102,377 -1,139 -8,216 -38,418 -20,137 -36,259 -36,273 0,21 -4,24 -37,24 -21,0 -130,-11 -243,-25 -493,-61 -693,-37 -818,100 -87,95 -92,163 -27,365 27,86 45,159 45,188 0,70 -40,144 -104,191 -104,78 -172,95 -242,62 z"
       id="path9" />
    <path
       d="m 8022,6334 c -74,-37 -181,-145 -218,-219 -25,-51 -29,-71 -28,-135 1,-44 12,-118 28,-180 14,-58 26,-129 26,-159 0,-103 -65,-172 -195,-205 -76,-20 -250,-21 -370,-1 -474,76 -889,134 -895,124 -4,-6 -10,-142 -14,-302 -10,-393 10,-618 60,-694 44,-67 129,-73 262,-17 213,89 257,97 367,69 91,-24 153,-63 241,-150 112,-111 148,-186 148,-305 0,-74 -4,-93 -29,-145 -78,-157 -272,-269 -434,-252 -31,4 -108,25 -171,47 -128,46 -232,61 -293,41 -20,-7 -53,-31 -74,-55 -102,-116 -114,-310 -48,-796 14,-102 25,-202 25,-222 0,-20 3,-39 8,-41 7,-4 138,8 367,33 136,15 328,7 447,-20 142,-31 226,-82 253,-155 24,-62 15,-105 -50,-244 -62,-133 -78,-190 -66,-243 28,-123 211,-288 320,-288 115,0 278,171 297,310 4,36 -3,71 -36,175 -51,161 -55,233 -15,300 42,73 115,118 260,160 140,40 231,45 465,23 291,-27 652,-100 904,-183 60,-20 110,-34 112,-32 3,2 7,130 11,283 9,417 -14,635 -79,763 -40,79 -84,106 -168,106 -56,-1 -94,-17 -254,-110 -38,-22 -65,-29 -122,-33 -65,-4 -80,-1 -128,22 -156,76 -297,350 -267,517 21,123 114,245 223,294 82,37 151,36 288,-4 210,-62 309,-31 385,119 37,72 55,183 55,332 0,116 -23,506 -36,595 l -5,31 -427,-109 c -378,-96 -437,-109 -512,-109 -198,0 -341,75 -377,199 -22,76 -9,148 57,316 83,211 95,278 64,369 -31,90 -159,188 -264,202 -36,4 -55,0 -98,-22 z"
       id="path10" />
    <path
       d="m 5509,5652 c -113,-30 -198,-104 -251,-219 -46,-97 -39,-153 38,-307 58,-117 59,-121 58,-200 0,-116 -28,-182 -113,-267 -49,-49 -81,-71 -124,-87 -121,-46 -229,-38 -355,24 -140,69 -231,196 -239,337 -4,60 1,96 33,217 30,116 37,164 38,242 l 1,97 -34,35 c -20,20 -60,45 -90,57 -103,39 -179,36 -581,-20 -201,-28 -382,-54 -402,-57 -47,-7 -47,1 -9,-265 55,-381 61,-554 26,-721 -30,-145 -123,-262 -233,-294 -70,-21 -108,-15 -260,36 -146,49 -210,52 -290,15 -122,-57 -173,-129 -180,-256 -6,-107 15,-168 82,-235 40,-40 63,-54 103,-63 67,-16 95,-10 225,50 120,55 193,74 246,64 88,-16 161,-81 181,-161 19,-75 36,-294 35,-444 -1,-111 -8,-178 -28,-285 -30,-158 -66,-303 -95,-387 -14,-41 -16,-58 -8,-58 7,0 109,20 227,44 235,48 355,62 677,76 252,11 288,21 324,91 19,38 21,54 16,129 -3,49 -18,127 -35,185 -40,138 -46,197 -28,283 28,133 107,235 224,290 49,23 70,27 147,27 82,0 96,-3 159,-34 89,-43 169,-124 221,-221 35,-67 40,-83 40,-145 0,-58 -6,-85 -37,-161 -41,-99 -46,-136 -24,-188 48,-115 183,-183 411,-207 111,-12 185,-8 450,22 247,28 225,20 225,78 0,27 -12,132 -27,233 -22,152 -26,219 -26,398 0,188 2,225 21,292 42,152 109,242 204,274 68,22 195,15 347,-20 222,-52 333,-44 418,29 128,109 121,269 -16,406 -71,70 -136,106 -213,118 -68,11 -125,-2 -237,-53 -126,-58 -173,-70 -244,-62 -100,10 -176,56 -213,129 -55,106 -78,359 -64,722 5,132 9,268 10,301 v 62 l -112,21 c -161,29 -253,40 -413,46 -116,4 -152,2 -206,-13 z"
       id="path11" />
    <path
       d="m 10125,5605 c -22,-8 -108,-23 -191,-34 -83,-11 -168,-26 -188,-35 -34,-14 -36,-18 -36,-60 0,-25 9,-150 21,-278 24,-266 22,-501 -5,-601 -51,-186 -180,-316 -346,-347 -62,-12 -120,-4 -238,34 -120,38 -162,41 -214,18 -80,-35 -128,-121 -128,-226 0,-198 149,-387 285,-362 18,4 64,27 101,52 87,57 158,79 254,78 193,-1 293,-97 340,-324 29,-142 43,-400 35,-662 -4,-126 -4,-228 0,-228 4,0 42,33 84,73 42,39 135,124 206,188 143,128 230,216 500,509 544,589 863,981 1145,1404 189,284 412,678 394,696 -19,19 -181,31 -479,37 -344,6 -395,1 -467,-47 -23,-16 -54,-46 -68,-66 -32,-47 -33,-122 -5,-246 19,-84 19,-89 2,-160 -37,-153 -132,-293 -237,-349 -38,-20 -59,-24 -140,-24 -86,0 -101,3 -162,32 -119,56 -195,157 -220,293 -16,86 0,160 68,302 52,108 56,123 51,171 -4,46 -10,56 -50,92 -74,68 -225,102 -312,70 z"
       id="path12" />
    <path
       d="m 4718,3465 c -137,-73 -166,-206 -103,-475 47,-201 37,-321 -37,-405 -64,-73 -113,-86 -363,-95 -226,-9 -244,-11 -560,-70 -115,-21 -243,-44 -282,-50 -40,-7 -73,-15 -73,-20 0,-19 52,-69 154,-145 61,-46 206,-163 321,-262 294,-249 1250,-996 1650,-1288 82,-61 258,-191 390,-290 132,-99 276,-205 320,-236 91,-63 206,-132 211,-126 11,11 114,783 114,852 0,213 -83,326 -230,312 -32,-3 -106,-24 -175,-52 -105,-41 -130,-47 -195,-47 -163,0 -318,102 -403,267 -29,54 -32,69 -32,150 0,83 3,96 34,160 88,178 313,312 481,286 25,-4 87,-27 138,-50 80,-37 101,-43 141,-39 58,6 100,35 132,91 28,50 38,183 21,287 -19,119 -62,364 -65,365 -1,1 -62,-6 -135,-16 -541,-72 -830,-31 -1003,142 -109,109 -126,192 -71,359 17,52 33,109 37,126 34,174 -251,358 -417,269 z"
       id="path13" />
    <path
       d="m 8410,2660 c -244,-26 -306,-44 -353,-99 -45,-54 -44,-84 7,-233 54,-155 57,-206 22,-302 -45,-125 -138,-235 -247,-292 -48,-26 -64,-29 -149,-29 -87,0 -101,3 -160,32 -86,43 -149,99 -203,181 -64,95 -90,179 -84,265 4,58 13,86 60,180 74,147 77,161 41,198 -15,16 -52,38 -82,49 -70,27 -234,43 -347,35 -131,-9 -426,-35 -452,-41 -30,-6 -30,-16 8,-248 52,-319 36,-450 -66,-552 -97,-97 -195,-108 -345,-39 -65,30 -101,40 -152,43 -62,4 -75,1 -143,-31 -142,-68 -233,-193 -222,-304 10,-97 73,-174 187,-231 82,-40 169,-36 320,14 100,33 128,38 210,38 73,1 103,-3 127,-17 137,-74 187,-200 186,-467 0,-164 -12,-269 -67,-592 -18,-109 -29,-198 -25,-198 29,0 208,123 545,375 103,77 322,241 488,365 166,124 461,351 656,505 195,153 456,359 580,456 124,97 299,241 390,320 91,79 215,183 275,232 121,99 179,149 189,165 10,17 -39,38 -165,70 -63,16 -184,48 -269,70 -298,78 -547,104 -760,82 z"
       id="path14" />
  </g>
</svg>
